<?xml version="1.0" ?><!DOCTYPE svg  PUBLIC '-//W3C//DTD SVG 20010904//EN'  'http://www.w3.org/TR/2001/REC-SVG-20010904/DTD/svg10.dtd'><svg height="256.000000pt" preserveAspectRatio="xMidYMid meet" version="1.0" viewBox="0 0 256.000000 256.000000" width="256.000000pt" xmlns="http://www.w3.org/2000/svg"><g fill="#000000" stroke="none" transform="translate(0.000000,256.000000) scale(0.100000,-0.100000)"><path d="M2230 2473 c-8 -3 -51 -41 -96 -85 l-81 -79 -64 11 c-35 7 -131 12 -214 12 -201 -1 -361 -30 -494 -88 -61 -27 -83 -48 -708 -666 -358 -354 -427 -426 -453 -478 -95 -188 -16 -393 260 -671 294 -296 534 -384 726 -267 61 37 1060 1012 1106 1080 31 46 72 163 93 268 23 112 30 341 16 450 l-13 92 86 88 c95 96 101 112 67 178 -23 44 -103 123 -148 146 -32 16 -56 19 -83 9z m64 -178 c17 -16 26 -34 26 -55 0 -38 -42 -80 -80 -80 -38 0 -80 42 -80 80 0 38 42 80 80 80 15 0 39 -11 54 -25z m-349 -110 c106 -20 173 -58 202 -115 52 -102 68 -319 38 -496 -21 -120 -40 -156 -90 -172 -108 -36 -271 27 -430 166 -130 113 -226 246 -265 365 -24 75 -62 17 -58 -89 4 -92 23 -120 192 -289 140 -139 250 -222 353 -265 81 -34 87 -40 79 -83 -6 -30 -73 -100 -437 -459 -496 -488 -502 -493 -629 -486 -133 8 -252 78 -425 252 -169 169 -237 287 -238 412 -1 119 0 120 542 654 268 265 507 494 532 510 137 91 427 135 634 95z"/></g></svg>